{
  "accessors": [
    {
      "bufferView": 2,
      "componentType": 5126,
      "count": 2192,
      "max": [
        118.4610366821289,
        119.28817749023438,
        195.7967529296875
      ],
      "min": [
        -115.53119659423828,
        -119.28817749023438,
        -195.79676818847656
      ],
      "type": "VEC3"
    },
    {
      "bufferView": 2,
      "byteOffset": 26304,
      "componentType": 5126,
      "count": 2192,
      "max": [
        0.9999787211418152,
        1.0,
        0.9999983310699463
      ],
      "min": [
        -0.9999783039093018,
        -1.0,
        -1.0
      ],
      "type": "VEC3"
    },
    {
      "bufferView": 1,
      "componentType": 5126,
      "count": 2192,
      "max": [
        0.7525599598884583,
        0.5431258082389832
      ],
      "min": [
        0.00295131653547287,
        -0.4710543155670166
      ],
      "type": "VEC2"
    },
    {
      "bufferView": 0,
      "componentType": 5125,
      "count": 10506,
      "type": "SCALAR"
    },
    {
      "bufferView": 2,
      "byteOffset": 52608,
      "componentType": 5126,
      "count": 2321,
      "max": [
        115.9159164428711,
        52.57320785522461,
        179.08636474609375
      ],
      "min": [
        -118.46102142333984,
        -65.32682800292969,
        9.415336608886719
      ],
      "type": "VEC3"
    },
    {
      "bufferView": 2,
      "byteOffset": 80460,
      "componentType": 5126,
      "count": 2321,
      "max": [
        0.9976955056190491,
        0.9994547367095947,
        0.9986348748207092
      ],
      "min": [
        -0.997593104839325,
        -0.9994547367095947,
        -0.998615026473999
      ],
      "type": "VEC3"
    },
    {
      "bufferView": 1,
      "byteOffset": 17536,
      "componentType": 5126,
      "count": 2321,
      "max": [
        0.6572181582450867,
        -0.07751131057739258
      ],
      "min": [
        0.6533729434013367,
        -0.09049445390701294
      ],
      "type": "VEC2"
    },
    {
      "bufferView": 0,
      "byteOffset": 42024,
      "componentType": 5125,
      "count": 11232,
      "type": "SCALAR"
    },
    {
      "bufferView": 2,
      "byteOffset": 108312,
      "componentType": 5126,
      "count": 1789,
      "max": [
        120.92875671386719,
        121.78817749023438,
        198.2904052734375
      ],
      "min": [
        -117.9950180053711,
        -121.78817749023438,
        -54.31809997558594
      ],
      "type": "VEC3"
    },
    {
      "bufferView": 2,
      "byteOffset": 129780,
      "componentType": 5126,
      "count": 1789,
      "max": [
        0.9999783039093018,
        1.0,
        0.9961016774177551
      ],
      "min": [
        -0.9999787211418152,
        -1.0,
        -0.9999983310699463
      ],
      "type": "VEC3"
    },
    {
      "bufferView": 1,
      "byteOffset": 36104,
      "componentType": 5126,
      "count": 1789,
      "max": [
        0.7525599598884583,
        -0.010278811678290367
      ],
      "min": [
        0.00295131653547287,
        -0.4710543155670166
      ],
      "type": "VEC2"
    },
    {
      "bufferView": 0,
      "byteOffset": 86952,
      "componentType": 5125,
      "count": 8904,
      "type": "SCALAR"
    },
    {
      "bufferView": 2,
      "byteOffset": 151248,
      "componentType": 5126,
      "count": 404,
      "max": [
        117.78450012207031,
        113.27220916748047,
        -35.2945671081543
      ],
      "min": [
        -110.07588195800781,
        -110.5390396118164,
        -197.99676513671875
      ],
      "type": "VEC3"
    },
    {
      "bufferView": 2,
      "byteOffset": 156096,
      "componentType": 5126,
      "count": 404,
      "max": [
        0.999799907207489,
        1.0,
        1.0
      ],
      "min": [
        -0.9997716546058655,
        -1.0,
        -0.9897705912590027
      ],
      "type": "VEC3"
    },
    {
      "bufferView": 1,
      "byteOffset": 50416,
      "componentType": 5126,
      "count": 404,
      "max": [
        0.14760208129882813,
        0.5431258082389832
      ],
      "min": [
        0.01269923523068428,
        0.14054182171821594
      ],
      "type": "VEC2"
    },
    {
      "bufferView": 0,
      "byteOffset": 122568,
      "componentType": 5125,
      "count": 1602,
      "type": "SCALAR"
    }
  ],
  "asset": {
    "extras": {
      "author": "Tomoe_512 (https://sketchfab.com/Tomoe_512)",
      "license": "CC-BY-4.0 (http://creativecommons.org/licenses/by/4.0/)",
      "source": "https://sketchfab.com/3d-models/cactusbunny-plushpon-0d9f4db0781c4b1ba79a3a529b927102",
      "title": "CactusBunny Plushpon"
    },
    "generator": "Sketchfab-15.30.0",
    "version": "2.0"
  },
  "bufferViews": [
    {
      "buffer": 0,
      "byteLength": 128976,
      "name": "floatBufferViews",
      "target": 34963
    },
    {
      "buffer": 0,
      "byteLength": 53648,
      "byteOffset": 128976,
      "byteStride": 8,
      "name": "floatBufferViews",
      "target": 34962
    },
    {
      "buffer": 0,
      "byteLength": 160944,
      "byteOffset": 182624,
      "byteStride": 12,
      "name": "floatBufferViews",
      "target": 34962
    }
  ],
  "buffers": [
    {
      "byteLength": 343568,
      "uri": "scene.bin"
    }
  ],
  "images": [
    {
      "uri": "textures/Mix_mat_baseColor.png"
    }
  ],
  "materials": [
    {
      "doubleSided": true,
      "name": "Mix_mat",
      "pbrMetallicRoughness": {
        "baseColorTexture": {
          "index": 0
        },
        "metallicFactor": 0.0,
        "roughnessFactor": 0.6
      }
    },
    {
      "name": "Out_conejo",
      "pbrMetallicRoughness": {
        "baseColorFactor": [
          0.0024367257485779087,
          0.31034588596650325,
          0.012678247136684376,
          1.0
        ],
        "metallicFactor": 0.0,
        "roughnessFactor": 0.8929713596497552
      }
    },
    {
      "name": "Out_maceta",
      "pbrMetallicRoughness": {
        "baseColorFactor": [
          0.6128662499164927,
          0.06278682885476652,
          0.0,
          1.0
        ],
        "metallicFactor": 0.0,
        "roughnessFactor": 0.8929713596497552
      }
    }
  ],
  "meshes": [
    {
      "name": "Conejo_cactus_Mix_mat_0",
      "primitives": [
        {
          "attributes": {
            "NORMAL": 1,
            "POSITION": 0,
            "TEXCOORD_0": 2
          },
          "indices": 3,
          "material": 0,
          "mode": 4
        }
      ]
    },
    {
      "name": "Espinas_Out_conejo_0",
      "primitives": [
        {
          "attributes": {
            "NORMAL": 5,
            "POSITION": 4,
            "TEXCOORD_0": 6
          },
          "indices": 7,
          "material": 1,
          "mode": 4
        }
      ]
    },
    {
      "name": "Out_Conejo_Out_conejo_0",
      "primitives": [
        {
          "attributes": {
            "NORMAL": 9,
            "POSITION": 8,
            "TEXCOORD_0": 10
          },
          "indices": 11,
          "material": 1,
          "mode": 4
        }
      ]
    },
    {
      "name": "Out_maceta_Out_maceta_0",
      "primitives": [
        {
          "attributes": {
            "NORMAL": 13,
            "POSITION": 12,
            "TEXCOORD_0": 14
          },
          "indices": 15,
          "material": 2,
          "mode": 4
        }
      ]
    }
  ],
  "nodes": [
    {
      "children": [
        1
      ],
      "matrix": [
        1.0,
        0.0,
        0.0,
        0.0,
        0.0,
        2.220446049250313e-16,
        -1.0,
        0.0,
        0.0,
        1.0,
        2.220446049250313e-16,
        0.0,
        0.0,
        0.0,
        0.0,
        1.0
      ],
      "name": "Sketchfab_model"
    },
    {
      "children": [
        2
      ],
      "matrix": [
        0.009999999776482582,
        0.0,
        0.0,
        0.0,
        0.0,
        0.0,
        0.009999999776482582,
        0.0,
        0.0,
        -0.009999999776482582,
        0.0,
        0.0,
        0.0,
        0.0,
        0.0,
        1.0
      ],
      "name": "99f126e6c40d4698adbe5704f4bb4d2b.fbx"
    },
    {
      "children": [
        3,
        6,
        9,
        12
      ],
      "name": "RootNode"
    },
    {
      "children": [
        4
      ],
      "matrix": [
        1.0,
        0.0,
        0.0,
        0.0,
        0.0,
        2.220446049250313e-16,
        -1.0,
        0.0,
        0.0,
        1.0,
        2.220446049250313e-16,
        0.0,
        -323.3697509765625,
        202.64947509765625,
        -1.7034759366651997e-05,
        1.0
      ],
      "name": "Conejo_cactus"
    },
    {
      "children": [
        5
      ],
      "matrix": [
        1.0,
        0.0,
        -0.0,
        0.0,
        0.0,
        1.0,
        0.0,
        0.0,
        0.0,
        0.0,
        1.0,
        0.0,
        -1.464935302734375,
        0.0,
        0.0,
        1.0
      ],
      "name": "Object_4"
    },
    {
      "mesh": 0,
      "name": "Conejo_cactus_Mix_mat_0"
    },
    {
      "children": [
        7
      ],
      "matrix": [
        1.0,
        0.0,
        0.0,
        0.0,
        0.0,
        2.220446049250313e-16,
        -1.0,
        0.0,
        0.0,
        1.0,
        2.220446049250313e-16,
        0.0,
        -326.10723876953125,
        296.90032958984375,
        6.376792907714844,
        1.0
      ],
      "name": "Espinas"
    },
    {
      "children": [
        8
      ],
      "matrix": [
        1.0,
        0.0,
        -0.0,
        0.0,
        0.0,
        1.0,
        0.0,
        0.0,
        0.0,
        0.0,
        1.0,
        0.0,
        1.272552490234375,
        6.376810073852539,
        -94.2508544921875,
        1.0
      ],
      "name": "Object_7"
    },
    {
      "mesh": 1,
      "name": "Espinas_Out_conejo_0"
    },
    {
      "children": [
        10
      ],
      "matrix": [
        1.0,
        0.0,
        0.0,
        0.0,
        0.0,
        2.220446049250313e-16,
        -1.0,
        0.0,
        0.0,
        1.0,
        2.220446049250313e-16,
        0.0,
        -323.3678283691406,
        274.6356201171875,
        -1.7034759366651997e-05,
        1.0
      ],
      "name": "Out_Conejo"
    },
    {
      "children": [
        11
      ],
      "matrix": [
        1.0,
        0.0,
        -0.0,
        0.0,
        0.0,
        1.0,
        0.0,
        0.0,
        0.0,
        0.0,
        1.0,
        0.0,
        -1.46685791015625,
        0.0,
        -71.98614501953125,
        1.0
      ],
      "name": "Object_10"
    },
    {
      "mesh": 2,
      "name": "Out_Conejo_Out_conejo_0"
    },
    {
      "children": [
        13
      ],
      "matrix": [
        1.0,
        0.0,
        0.0,
        0.0,
        0.0,
        2.220446049250313e-16,
        -1.0,
        0.0,
        0.0,
        1.0,
        2.220446049250313e-16,
        0.0,
        -320.9803771972656,
        86.0038070678711,
        -1.366601824760437,
        1.0
      ],
      "name": "Out_maceta"
    },
    {
      "children": [
        14
      ],
      "matrix": [
        1.0,
        0.0,
        -0.0,
        0.0,
        0.0,
        1.0,
        0.0,
        0.0,
        0.0,
        0.0,
        1.0,
        0.0,
        -3.85430908203125,
        -1.3665847778320313,
        116.64566802978516,
        1.0
      ],
      "name": "Object_13"
    },
    {
      "mesh": 3,
      "name": "Out_maceta_Out_maceta_0"
    }
  ],
  "samplers": [
    {
      "magFilter": 9729,
      "minFilter": 9987,
      "wrapS": 10497,
      "wrapT": 10497
    }
  ],
  "scene": 0,
  "scenes": [
    {
      "name": "Sketchfab_Scene",
      "nodes": [
        0
      ]
    }
  ],
  "textures": [
    {
      "sampler": 0,
      "source": 0
    }
  ]
}
